<svg width="20" height="20" viewBox="0 0 20 20" fill="none" xmlns="http://www.w3.org/2000/svg">
<path d="M16.3125 8.08756H16.1863V8.12956H16.2368V8.4517H16.2619V8.12956H16.3125V8.08756ZM12.2628 12.8032V6.6958H11.8499V9.2425H10.5916V6.6958H10.1813V12.8032H10.5916V10.1307H11.8499V12.8032H12.2628ZM12.572 8.37504V10.7814C12.572 11.5162 12.6321 12.0552 12.7553 12.3698C12.8718 12.677 13.061 12.8385 13.3193 12.8517H13.4141C13.6728 12.8385 13.862 12.677 13.9787 12.3698C14.0952 12.0617 14.1617 11.5162 14.1617 10.7814V8.37504H13.7704V10.7821H13.7736C13.7736 11.2369 13.7422 11.5582 13.6823 11.74C13.6254 11.908 13.5245 11.9994 13.3795 11.9994H13.3604C13.2155 11.9994 13.1115 11.908 13.0544 11.74C12.9947 11.5586 12.9631 11.2369 12.9631 10.7821V8.37504H12.572ZM15.0036 9.38924C15.0857 9.20048 15.2152 9.11629 15.379 9.11629C15.546 9.11629 15.6722 9.20721 15.7574 9.39618C15.8425 9.58518 15.8868 9.89973 15.8868 10.3335V10.8306C15.8868 11.1872 15.8425 11.4807 15.7509 11.6909C15.6595 11.9009 15.5368 12.0055 15.379 12.0055C15.2213 12.0055 15.0952 11.9009 15.01 11.6913C14.9249 11.4807 14.8776 11.1939 14.8776 10.8306V10.3264C14.8776 9.89302 14.9217 9.57802 15.0036 9.38924ZM14.4803 6.70944V10.8234C14.4803 11.4248 14.562 11.9219 14.723 12.2929C14.8839 12.6637 15.1047 12.8523 15.3822 12.8523C15.6595 12.8523 15.8835 12.6637 16.0446 12.2929C16.2052 11.9214 16.2874 11.4254 16.2874 10.8234V10.3264C16.284 8.95583 15.9782 8.25553 15.379 8.25553C15.1676 8.25553 15.0006 8.40296 14.8776 8.68245V6.70986H14.4803L14.4803 6.70944ZM2.55879 10.9914V11.0828C2.55332 11.5863 2.66087 12.0634 2.84582 12.3559C3.03501 12.6637 3.29689 12.8246 3.63109 12.8246C3.96567 12.8246 4.23647 12.6705 4.42266 12.3559C4.60873 12.0657 4.71653 11.5869 4.70953 11.0822V10.9568C4.71304 10.6244 4.66405 10.2999 4.57101 10.0402C4.47286 9.78297 4.3438 9.59378 4.19875 9.49445L3.24314 8.78765C3.18673 8.74837 3.13497 8.68139 3.09176 8.59172C3.06003 8.53212 3.04073 8.446 3.03823 8.35383V8.21418C3.03823 7.71694 3.22418 7.4654 3.60581 7.45133H3.6407C4.02213 7.45133 4.21766 7.67537 4.23979 8.1302L4.24311 8.1997H4.6528V8.12284C4.6339 7.0876 4.29331 6.55572 3.6407 6.55572H3.59956C2.95933 6.5698 2.63774 7.12921 2.63774 8.21417V8.35381C2.63648 8.64211 2.68115 8.92222 2.76379 9.14463C2.84582 9.36131 2.96893 9.52931 3.12338 9.64124L4.06931 10.3474C4.23023 10.4663 4.30918 10.6626 4.30918 10.9568V11.0828C4.30918 11.3415 4.25246 11.5372 4.13587 11.6909C4.01899 11.845 3.8455 11.929 3.63109 11.929C3.4166 11.929 3.24946 11.8517 3.13284 11.6909C3.01611 11.53 2.96566 11.3415 2.96566 11.0828V10.9914H2.55879ZM16.5016 8.45168V8.08821H16.4608L16.4165 8.3469L16.3724 8.08821H16.3346V8.45168H16.3566V8.151L16.4103 8.45168H16.426L16.4765 8.151V8.45168H16.5016ZM5.84834 9.26999V8.37504H5.42246V6.70986H5.02505V10.8373C5.02505 11.4393 5.10713 11.9364 5.26807 12.3072C5.41255 12.6306 5.60572 12.8246 5.81043 12.853L5.84834 12.8601V12.0065L5.81979 11.9994C5.71899 11.9672 5.62576 11.8616 5.55494 11.6986C5.46654 11.4885 5.42246 11.2016 5.42246 10.8373V9.2706H5.84834V9.26999ZM8.58891 9.38924C8.6708 9.20048 8.79996 9.11629 8.96411 9.11629C9.13147 9.11629 9.25751 9.20721 9.34251 9.39618C9.4278 9.58518 9.47195 9.89973 9.47195 10.3335V10.8306C9.47195 11.1939 9.4278 11.4742 9.33627 11.6909C9.24475 11.9076 9.12504 12.0055 8.9639 12.0055C8.80317 12.0055 8.68033 11.9009 8.59514 11.6913C8.51004 11.4807 8.46267 11.1939 8.46267 10.8306V10.3264C8.46268 9.89302 8.50684 9.57802 8.58891 9.38924ZM8.06517 6.70944V10.8234C8.06517 11.4248 8.14734 11.9219 8.30808 12.2929C8.46901 12.6637 8.6897 12.8523 8.96732 12.8523C9.24474 12.8523 9.46873 12.6637 9.62966 12.2929C9.79051 11.9214 9.87258 11.4254 9.87258 10.8234V10.3264C9.86917 8.95583 9.5666 8.25553 8.9641 8.25553C8.75277 8.25553 8.58578 8.40296 8.46267 8.68245V6.70986H8.06536L8.06517 6.70944ZM6.16038 8.37504V10.7814C6.16038 11.5162 6.22033 12.0552 6.34344 12.3698C6.46003 12.677 6.64923 12.8385 6.90774 12.8517H6.99936C7.25788 12.8385 7.44726 12.677 7.56376 12.3698C7.68365 12.0479 7.747 11.5162 7.747 10.7814V8.37504H7.35876V10.7821C7.35876 11.2369 7.32738 11.5653 7.26723 11.74C7.20747 11.9154 7.10969 11.9994 6.96154 11.9994H6.94896C6.80382 11.9994 6.69962 11.908 6.64318 11.74C6.58312 11.5586 6.55155 11.2369 6.55155 10.7821V8.37504H6.16038Z" fill="#3F1D74"/>
<mask id="mask0_1221_13" style="mask-type:luminance" maskUnits="userSpaceOnUse" x="0" y="0" width="20" height="20">
<path d="M0 0.0756359H19.0476V19.213H0V0.0756359Z" fill="white"/>
</mask>
<g mask="url(#mask0_1221_13)">
<path d="M16.4166 8.3469L16.3722 8.08822H16.3344V8.45188H16.3568V8.1512L16.4101 8.45188H16.426L16.4765 8.1512V8.45188H16.5017V8.08822H16.4608L16.4166 8.3469ZM16.1863 8.13022H16.2368V8.45189H16.262V8.13022H16.3126V8.08822H16.1863V8.13022ZM5.55499 11.6981C5.46659 11.4881 5.42243 11.2016 5.42243 10.8373V9.27001H5.8482V8.37506H5.42243V6.70988H5.0251V10.838C5.0251 11.4394 5.10717 11.9364 5.26812 12.3072C5.41269 12.6306 5.60577 12.8246 5.81048 12.853L5.84839 12.8601V12.0065L5.81984 11.9998C5.71904 11.9679 5.62572 11.8623 5.55499 11.6991V11.6981ZM4.19879 9.49406L3.24318 8.78767C3.18669 8.74839 3.13487 8.68141 3.0918 8.59112C3.06021 8.53149 3.04077 8.44583 3.03828 8.35385V8.21358C3.03828 7.71696 3.2245 7.46542 3.60585 7.45155H3.64074C4.02217 7.45155 4.2177 7.67539 4.23983 8.13024L4.24315 8.19973H4.65313V8.12287C4.63422 7.08723 4.29336 6.55576 3.64074 6.55576H3.5996C2.95937 6.56983 2.63778 7.12966 2.63778 8.2142V8.35385C2.63652 8.64214 2.6811 8.92226 2.76383 9.14467C2.84586 9.36135 2.96897 9.52935 3.12333 9.64127L4.06963 10.3481C4.23028 10.4663 4.30923 10.6626 4.30923 10.9568V11.0828C4.30923 11.3415 4.25251 11.5372 4.13573 11.6909C4.01905 11.845 3.84554 11.9286 3.63123 11.9286C3.41665 11.9286 3.24951 11.8522 3.13289 11.6909C3.01616 11.5301 2.96561 11.3415 2.96561 11.0828V10.9915H2.55913V11.0828C2.55363 11.5864 2.66105 12.0634 2.84586 12.356C3.0353 12.6638 3.29694 12.8246 3.63146 12.8246C3.96572 12.8246 4.2369 12.6705 4.42308 12.356C4.60907 12.0658 4.71686 11.587 4.70986 11.0828V10.9568C4.71336 10.6244 4.66428 10.3 4.57125 10.0402C4.473 9.783 4.34385 9.5938 4.19879 9.49406ZM13.7737 10.7821C13.7737 11.2365 13.7423 11.5582 13.6823 11.74C13.6255 11.908 13.5245 11.9988 13.3796 11.9988H13.3605C13.2155 11.9988 13.1115 11.9076 13.0545 11.74C12.9947 11.5582 12.9631 11.2359 12.9631 10.7821V8.37441H12.5721V10.7821C12.5721 11.5162 12.6323 12.0546 12.755 12.3698C12.8718 12.677 13.061 12.8385 13.3196 12.8523H13.4142C13.6729 12.8385 13.8621 12.677 13.9786 12.3698C14.0955 12.0624 14.1617 11.5162 14.1617 10.7821V8.37441H13.7706V10.7821H13.7737ZM7.3591 10.7821C7.3591 11.2365 7.32723 11.5649 7.26747 11.74C7.20752 11.9148 7.10975 11.9988 6.96159 11.9988H6.94901C6.80387 11.9988 6.69967 11.9076 6.64293 11.74C6.58317 11.5582 6.5516 11.2359 6.5516 10.7821V8.37441H6.16043V10.7821C6.16043 11.5162 6.2201 12.0546 6.34349 12.3698C6.46007 12.677 6.64928 12.8385 6.90808 12.8523H6.99969C7.25793 12.8385 7.44731 12.677 7.5638 12.3698C7.68369 12.0479 7.74705 11.5162 7.74705 10.7821V8.37441H7.3591V10.7821ZM15.379 9.11631C15.5463 9.11631 15.6722 9.20723 15.7574 9.39621C15.8425 9.5852 15.8869 9.90018 15.8869 10.3336V10.8306C15.8869 11.1872 15.8425 11.4807 15.7512 11.6909C15.6596 11.9009 15.5368 12.0059 15.3787 12.0059C15.2214 12.0059 15.0953 11.9009 15.0101 11.6909C14.9247 11.4807 14.8777 11.1945 14.8777 10.8306V10.3264C14.8777 9.89304 14.9215 9.57804 15.0039 9.38926C15.0858 9.2005 15.2149 9.11631 15.379 9.11631ZM15.379 8.25619C15.1677 8.25619 15.0006 8.40297 14.8777 8.68249V6.70988H14.4799V10.8235C14.4799 11.4255 14.5621 11.9219 14.7228 12.2923C14.8836 12.6638 15.1044 12.8523 15.382 12.8523C15.6596 12.8523 15.8834 12.6638 16.0442 12.2923C16.2049 11.9219 16.2871 11.4255 16.2871 10.8235V10.3264C16.2839 8.95586 15.9779 8.25619 15.3787 8.25619H15.379ZM11.8501 9.24252H10.5916V6.69582H10.1816V12.8032H10.5916V10.1307H11.8501V12.8032H12.2629V6.69582H11.85V9.24252H11.8501ZM8.96416 9.11631C9.13151 9.11631 9.25756 9.20723 9.34256 9.39621C9.42785 9.5852 9.472 9.90018 9.472 10.3336V10.8306C9.472 11.1945 9.42785 11.4742 9.33632 11.6909C9.2448 11.9076 9.12508 12.0059 8.96416 12.0059C8.8035 12.0059 8.68039 11.9009 8.5952 11.6909C8.5101 11.4807 8.46273 11.1945 8.46273 10.8306V10.3264C8.46273 9.89304 8.50689 9.57804 8.58896 9.38926C8.67085 9.2005 8.80001 9.11631 8.96416 9.11631ZM8.96416 8.25619C8.7531 8.25619 8.58584 8.40297 8.46273 8.68249V6.70988H8.06542V10.8235C8.06542 11.4255 8.14768 11.9219 8.30841 12.2923C8.46935 12.6638 8.69004 12.8523 8.96755 12.8523C9.24517 12.8523 9.46907 12.6638 9.62999 12.2923C9.79056 11.9219 9.87291 11.4255 9.87291 10.8235V10.3264C9.86941 8.95586 9.56674 8.25619 8.96433 8.25619H8.96416ZM0.389056 18.4003C0.294451 18.4843 0.240836 18.3799 0.272324 18.1626L0.540384 16.239C0.573855 15.9773 0.585728 15.7043 0.575273 15.4341L0.00133423 3.30236C-0.00949332 3.08407 0.0615661 2.88722 0.159902 2.86348C0.160188 2.86348 0.160425 2.86348 0.160661 2.86316L0.168366 2.86181L18.8765 0.0769911C18.9634 0.06042 19.0398 0.203294 19.0473 0.395976C19.0482 0.417827 19.048 0.439981 19.047 0.4618L18.287 18.8277C18.2756 19.0566 18.1855 19.2258 18.0819 19.2126L2.18668 16.9447C2.06414 16.9365 1.94202 16.9819 1.82728 17.0774L0.389056 18.401V18.4003Z" fill="white"/>
</g>
<rect x="16.0391" y="7.64433" width="0.681626" height="1.00916" fill="white"/>
<rect x="1.72339" y="5.81683" width="15.5113" height="9.56866" fill="white"/>
<path d="M11.2532 7.32415C11.2056 6.84447 11.0015 6.47183 10.6407 6.20622C10.28 5.94061 9.79039 5.80781 9.17196 5.80781C8.75174 5.80781 8.39694 5.86727 8.10755 5.9862C7.81815 6.10117 7.59615 6.26172 7.44155 6.46786C7.2909 6.67401 7.21558 6.9079 7.21558 7.16954C7.20765 7.38758 7.25324 7.57787 7.35235 7.7404C7.45542 7.90294 7.59615 8.04367 7.77455 8.1626C7.95294 8.27756 8.15908 8.37865 8.39298 8.46587C8.62687 8.54912 8.87662 8.62047 9.14223 8.67994L10.2364 8.94158C10.7676 9.06051 11.2552 9.21908 11.6992 9.4173C12.1432 9.61551 12.5277 9.85931 12.8528 10.1487C13.1779 10.4381 13.4296 10.779 13.608 11.1715C13.7904 11.564 13.8835 12.0139 13.8875 12.5213C13.8835 13.2666 13.6932 13.9128 13.3166 14.4599C12.944 15.003 12.4048 15.4252 11.6992 15.7265C10.9975 16.0238 10.1511 16.1724 9.16007 16.1724C8.17692 16.1724 7.32064 16.0218 6.59121 15.7205C5.86574 15.4192 5.29885 14.9732 4.89053 14.3826C4.48617 13.7879 4.27408 13.0526 4.25426 12.1764H6.74581C6.77356 12.5848 6.89051 12.9257 7.09665 13.1992C7.30676 13.4688 7.58624 13.673 7.9351 13.8117C8.28792 13.9465 8.68633 14.0139 9.13033 14.0139C9.56641 14.0139 9.945 13.9505 10.2661 13.8236C10.5912 13.6967 10.8429 13.5203 11.0213 13.2944C11.1997 13.0684 11.2889 12.8087 11.2889 12.5154C11.2889 12.2419 11.2076 12.0119 11.0451 11.8256C10.8865 11.6393 10.6526 11.4807 10.3434 11.3499C10.0382 11.2191 9.66353 11.1001 9.21953 10.9931L7.89348 10.6601C6.86672 10.4104 6.05603 10.0199 5.46138 9.48865C4.86674 8.95744 4.5714 8.24188 4.57537 7.34199C4.5714 6.60463 4.76763 5.96044 5.16406 5.4094C5.56446 4.85836 6.11351 4.42824 6.81122 4.11902C7.50894 3.80981 8.3018 3.6552 9.1898 3.6552C10.0937 3.6552 10.8826 3.80981 11.5565 4.11902C12.2344 4.42824 12.7616 4.85836 13.1382 5.4094C13.5148 5.96044 13.7091 6.59869 13.721 7.32415H11.2532Z" fill="#3F1D74"/>
</svg>
